<svg width="59" height="58" viewBox="0 0 59 58" fill="none" xmlns="http://www.w3.org/2000/svg">
<circle cx="29.5219" cy="28.7641" r="28.7641" fill="white"/>
<path d="M41.5348 18.8878C39.3869 17.902 37.1201 17.199 34.7913 16.7964C34.77 16.7923 34.748 16.795 34.7284 16.8042C34.7088 16.8134 34.6926 16.8285 34.6822 16.8475C34.3923 17.3652 34.0693 18.0402 33.8429 18.5731C31.3324 18.1918 28.7788 18.1918 26.2683 18.5731C26.0163 17.9827 25.732 17.4066 25.4166 16.8475C25.4057 16.829 25.3894 16.8142 25.37 16.805C25.3505 16.7959 25.3287 16.7929 25.3075 16.7964C22.9784 17.1981 20.7116 17.9012 18.5639 18.8878C18.5458 18.8955 18.5303 18.9085 18.5198 18.9251C14.2238 25.3429 13.0462 31.6019 13.6246 37.7822C13.626 37.7976 13.6306 37.8125 13.6379 37.826C13.6453 37.8395 13.6553 37.8514 13.6674 37.8609C16.1683 39.7138 18.9658 41.1282 21.9405 42.0437C21.9615 42.0498 21.9838 42.0494 22.0045 42.0425C22.0253 42.0356 22.0434 42.0225 22.0565 42.0051C22.696 41.1361 23.2621 40.2153 23.749 39.2524C23.7557 39.2393 23.7597 39.2248 23.7604 39.21C23.7612 39.1952 23.7589 39.1804 23.7535 39.1666C23.7482 39.1527 23.74 39.1402 23.7294 39.1298C23.7189 39.1194 23.7062 39.1113 23.6924 39.1061C22.7998 38.7645 21.9357 38.3528 21.1081 37.8747C21.093 37.866 21.0802 37.8536 21.071 37.8387C21.0617 37.8238 21.0563 37.8068 21.0552 37.7893C21.0542 37.7719 21.0574 37.7544 21.0647 37.7384C21.072 37.7225 21.0831 37.7086 21.0971 37.698C21.2714 37.5677 21.4426 37.4333 21.6106 37.2949C21.6253 37.283 21.643 37.2754 21.6618 37.273C21.6806 37.2705 21.6997 37.2734 21.7169 37.2811C27.1394 39.7563 33.0091 39.7563 38.3681 37.2811C38.3855 37.2731 38.4048 37.2701 38.4239 37.2726C38.4429 37.275 38.4609 37.2828 38.4757 37.2949C38.6414 37.4302 38.8153 37.5683 38.9907 37.698C39.0045 37.7085 39.0155 37.7221 39.0228 37.7377C39.0302 37.7534 39.0336 37.7706 39.0328 37.7879C39.032 37.8052 39.0269 37.822 39.0182 37.8369C39.0094 37.8518 38.9971 37.8643 38.9824 37.8734C38.1567 38.3559 37.2918 38.7678 36.3968 39.1047C36.3828 39.1101 36.3702 39.1183 36.3596 39.1288C36.3491 39.1394 36.3409 39.152 36.3355 39.166C36.3302 39.1799 36.3278 39.1948 36.3286 39.2097C36.3294 39.2246 36.3334 39.2392 36.3402 39.2524C36.8371 40.216 37.4059 41.1326 38.0312 42.0037C38.0441 42.0215 38.0622 42.0347 38.083 42.0417C38.1038 42.0486 38.1262 42.0488 38.1472 42.0424C41.1269 41.1296 43.929 39.7151 46.4327 37.8596C46.4449 37.8509 46.4552 37.8398 46.4628 37.827C46.4704 37.8141 46.4752 37.7998 46.4769 37.785C47.1671 30.6383 45.3201 24.4304 41.5776 18.9279C41.5689 18.9093 41.5537 18.8946 41.5348 18.8865V18.8878ZM24.5593 34.0177C22.9262 34.0177 21.5816 32.5199 21.5816 30.6784C21.5816 28.8382 22.9014 27.339 24.5593 27.339C26.2296 27.339 27.5632 28.852 27.5369 30.6798C27.5369 32.5199 26.2172 34.0177 24.5593 34.0177ZM35.5685 34.0177C33.9354 34.0177 32.5908 32.5199 32.5908 30.6784C32.5908 28.8382 33.9092 27.339 35.5685 27.339C37.2388 27.339 38.5724 28.852 38.5461 30.6798C38.5461 32.5199 37.2402 34.0177 35.5685 34.0177Z" fill="#5865F2"/>
</svg>
