<svg width="58" height="58" viewBox="0 0 58 58" fill="none" xmlns="http://www.w3.org/2000/svg">
<circle cx="28.808" cy="28.7641" r="28.7641" fill="white"/>
<path d="M41.1705 23.271C41.1832 23.5411 41.1896 23.812 41.1896 24.0866C41.1896 32.4399 34.8321 42.0707 23.2055 42.0707C19.634 42.0707 16.3134 41.026 13.5156 39.2311C14.0121 39.2884 14.5149 39.3175 15.0232 39.3175C17.9873 39.3175 20.7096 38.3109 22.8718 36.6134C20.1086 36.5606 17.7736 34.7358 16.9699 32.2235C17.3554 32.2981 17.75 32.3372 18.1592 32.3372C18.7365 32.3372 19.2939 32.2608 19.8231 32.1153C16.9344 31.5343 14.7531 28.9802 14.7531 25.9188C14.7531 25.8924 14.7531 25.866 14.7531 25.8397C15.6069 26.3134 16.5807 26.5971 17.6173 26.6298C15.9224 25.4978 14.8068 23.5611 14.8068 21.368C14.8068 20.2096 15.1186 19.1249 15.6615 18.1901C18.7775 22.0145 23.4374 24.5303 28.6883 24.794C28.5819 24.3312 28.5246 23.8502 28.5246 23.3538C28.5246 19.8641 31.3542 17.0354 34.8466 17.0354C36.6633 17.0354 38.3063 17.8028 39.4565 19.0285C40.895 18.7457 42.2497 18.2192 43.4718 17.4955C42.9981 18.9721 41.9979 20.2105 40.6922 20.9906C41.9706 20.8397 43.189 20.4996 44.321 19.9977C43.4754 21.2661 42.4043 22.3791 41.1705 23.271Z" fill="#65BBF2"/>
</svg>
